<?xml version="1.0" encoding="UTF-8"?>
<svg version="1.1" xmlns="http://www.w3.org/2000/svg" width="48" height="46">
<path d="M0 0 C0.66 0 1.32 0 2 0 C4.475 7.425 4.475 7.425 7 15 C12.61 15.66 18.22 16.32 24 17 C20.82270675 20.17729325 18.21605594 22.74084058 14.6875 25.3125 C13.99011719 25.82425781 13.29273438 26.33601563 12.57421875 26.86328125 C12.05472656 27.23839844 11.53523438 27.61351563 11 28 C11.28875 28.90363281 11.5775 29.80726562 11.875 30.73828125 C12.24625 31.91777344 12.6175 33.09726562 13 34.3125 C13.37125 35.48425781 13.7425 36.65601563 14.125 37.86328125 C15 41 15 41 15 44 C11.17785687 42.25492351 8.28268897 39.84832642 5.09765625 37.14453125 C3.04212947 35.7892409 3.04212947 35.7892409 0.5703125 36.1015625 C-2.46477357 37.16245885 -4.61676337 38.6373644 -7.1875 40.5625 C-11.80080483 44 -11.80080483 44 -14 44 C-13.79503906 43.27554688 -13.59007812 42.55109375 -13.37890625 41.8046875 C-13.10949219 40.83789062 -12.84007812 39.87109375 -12.5625 38.875 C-12.29566406 37.92367187 -12.02882813 36.97234375 -11.75390625 35.9921875 C-11.0018239 33.00723889 -10.46482501 30.04167044 -10 27 C-10.86625 26.37351562 -11.7325 25.74703125 -12.625 25.1015625 C-13.75024843 24.27638032 -14.87523499 23.45084098 -16 22.625 C-16.57234375 22.2125 -17.1446875 21.8 -17.734375 21.375 C-19.19315312 20.29828281 -20.60100976 19.15333422 -22 18 C-22 17.34 -22 16.68 -22 16 C-13.585 15.505 -13.585 15.505 -5 15 C-3.35 10.05 -1.7 5.1 0 0 Z " fill="#000000" transform="translate(23,1)"/>
</svg>
